<?xml version="1.0" standalone="no"?>
<!DOCTYPE svg PUBLIC "-//W3C//DTD SVG 20010904//EN"
 "http://www.w3.org/TR/2001/REC-SVG-20010904/DTD/svg10.dtd">
<svg version="1.0" xmlns="http://www.w3.org/2000/svg"
 width="512.000000pt" height="512.000000pt" viewBox="0 0 512.000000 512.000000"
 preserveAspectRatio="xMidYMid meet">
<metadata>
Created by potrace 1.14, written by Peter Selinger 2001-2017
</metadata>
<g transform="translate(0.000000,512.000000) scale(0.100000,-0.100000)"
fill="#000000" stroke="none">
<path d="M1176 5104 c-129 -25 -262 -77 -333 -131 -41 -30 -46 -81 -11 -113
31 -29 56 -25 145 19 73 37 141 60 223 78 19 4 94 7 165 7 113 -1 141 -5 215
-29 184 -59 324 -159 425 -300 126 -177 171 -360 156 -630 -1 -20 -25 -23
-128 -16 -9 1 -13 18 -13 51 0 73 -22 91 -134 113 -204 40 -425 147 -606 291
-78 63 -91 68 -128 55 -33 -11 -48 -36 -57 -93 -24 -144 -164 -256 -320 -256
-53 0 -68 -4 -85 -22 -11 -12 -21 -31 -22 -42 -3 -42 -5 -71 -6 -86 -2 -12
-16 -15 -64 -14 l-63 0 -1 119 c-1 208 42 364 140 508 32 47 33 87 3 115 -47
45 -90 27 -144 -60 -110 -175 -144 -303 -148 -565 l-3 -182 -30 -38 c-84 -105
-80 -245 8 -345 58 -66 115 -90 223 -93 49 -2 91 -6 94 -9 4 -3 15 -38 25 -78
10 -39 31 -92 48 -118 30 -46 118 -136 172 -175 l27 -20 2 -168 c2 -96 -2
-172 -7 -177 -5 -5 -30 -16 -54 -24 -113 -35 -453 -157 -482 -172 -166 -85
-282 -243 -313 -427 -3 -22 -6 -245 -6 -498 0 -507 -1 -496 63 -534 28 -16 89
-17 909 -17 l879 0 1 -467 c1 -256 4 -477 8 -491 4 -14 22 -35 40 -47 l34 -23
1144 0 c848 0 1150 3 1166 12 30 16 45 33 55 60 5 13 8 324 8 693 -1 518 -4
675 -14 692 -14 26 -51 38 -85 29 -51 -12 -51 -9 -51 -697 l0 -639 -1078 0
-1078 0 2 1267 3 1267 292 1 293 0 5 -26 c8 -36 58 -93 99 -113 29 -14 81 -16
388 -16 l354 0 46 29 c33 21 53 43 68 78 l23 48 73 -1 c41 -1 78 -2 82 -3 5 0
7 -14 4 -30 -2 -19 4 -44 18 -69 l22 -39 -25 -70 c-19 -51 -25 -85 -22 -124 5
-69 17 -245 20 -284 6 -88 49 -135 135 -148 53 -8 83 10 184 111 l92 93 0
-192 1 -192 27 -24 c36 -31 69 -29 98 5 l24 29 -1 304 0 304 37 17 c48 21 62
46 113 186 24 64 73 200 110 302 73 200 81 244 48 287 l-20 28 173 475 c95
261 173 490 174 508 0 69 -49 129 -122 147 l-26 7 24 68 c18 54 22 75 14 95
-13 34 -65 57 -98 42 -23 -11 -62 -73 -62 -100 0 -7 -6 -21 -13 -30 -11 -16
-16 -16 -52 -4 -44 15 -56 15 -101 4 -64 -16 -74 -38 -258 -542 -156 -429
-176 -480 -197 -483 -33 -5 -68 -31 -84 -63 -8 -15 -48 -119 -89 -231 -41
-112 -77 -210 -81 -219 -5 -13 -25 -15 -114 -15 l-108 0 -6 74 c-5 63 -10 80
-35 110 -61 76 -57 75 -432 77 -184 0 -350 -2 -368 -6 -88 -19 -145 -98 -144
-198 l0 -57 -306 1 c-169 0 -322 -2 -341 -6 -19 -4 -46 -19 -60 -33 -21 -22
-26 -37 -29 -96 -2 -38 -7 -70 -11 -70 -3 1 -49 16 -101 34 l-95 33 -2 172 -1
171 35 28 c139 107 209 210 227 330 2 19 7 36 10 39 2 3 44 6 93 8 48 2 102 8
118 15 167 64 230 258 132 406 l-32 49 -1 150 c-2 231 -21 344 -84 479 -134
294 -394 500 -706 559 -90 18 -261 18 -348 1z m199 -909 c106 -64 282 -139
391 -166 49 -13 93 -26 98 -30 11 -10 11 -296 1 -418 -19 -204 -31 -243 -102
-315 -125 -129 -341 -236 -448 -223 -100 13 -277 111 -380 211 -61 60 -82 97
-95 169 -18 98 -20 132 -26 353 l-5 220 60 12 c132 24 267 122 327 236 l28 54
36 -27 c19 -15 71 -50 115 -76z m3347 19 c40 -14 82 -29 93 -34 11 -5 30 -11
41 -15 21 -5 21 -8 9 -48 -14 -43 -160 -446 -175 -482 -5 -11 -39 -103 -75
-205 -37 -102 -68 -187 -70 -189 -6 -5 -225 71 -231 81 -3 5 6 39 20 76 13 37
43 119 66 182 22 63 45 124 49 135 5 11 46 124 91 250 103 286 99 275 104 275
3 0 38 -12 78 -26z m-4069 -384 c3 -3 8 -57 10 -121 l6 -116 -74 2 c-87 3
-120 19 -142 72 -25 62 -2 125 59 156 25 12 131 18 141 7z m1532 -14 c53 -35
71 -95 45 -155 -20 -47 -55 -64 -134 -65 l-71 -1 -1 115 c0 63 1 118 3 121 6
14 133 1 158 -15z m2302 -721 l81 -29 -43 -121 c-93 -262 -148 -410 -154 -417
-4 -4 -36 3 -71 16 -36 13 -119 43 -185 66 -66 24 -123 46 -127 49 -6 5 115
354 180 523 l11 26 113 -42 c62 -24 150 -56 195 -71z m-3306 -171 c53 -22 80
-27 159 -27 81 -1 106 3 164 26 38 15 71 25 74 23 2 -3 5 -74 6 -158 1 -84 5
-160 10 -169 5 -12 -3 -23 -36 -42 -71 -41 -140 -57 -237 -54 -74 3 -95 8
-156 38 -61 30 -70 37 -68 59 2 14 4 94 5 178 1 83 5 152 8 152 3 0 35 -12 71
-26z m2317 12 c14 -8 17 -223 4 -244 -7 -9 -81 -12 -338 -10 l-329 3 -3 120
c-2 93 0 122 11 130 16 12 636 13 655 1z m-2495 -454 c25 -27 133 -79 202 -97
154 -40 348 -2 474 93 30 23 34 23 29 6 -3 -10 -83 -208 -178 -439 -95 -231
-175 -428 -179 -439 -8 -20 0 -38 -218 494 -165 401 -164 400 -154 400 4 0 15
-8 24 -18z m22 -515 c195 -476 212 -513 245 -535 28 -19 44 -23 83 -19 79 7
92 27 208 311 56 138 110 269 120 291 9 22 56 137 104 255 48 118 88 216 89
217 1 2 17 -3 34 -9 l32 -12 0 -643 0 -643 -27 -1 c-163 -4 -1162 0 -1170 4
-8 5 -11 113 -11 330 -1 177 -1 335 -1 350 -2 64 -79 93 -126 46 -19 -19 -20
-34 -22 -342 -1 -177 -2 -338 -2 -357 l-1 -35 -165 1 c-91 0 -168 4 -171 7
-13 13 -7 843 6 899 27 114 106 221 202 273 56 31 349 136 358 128 3 -2 99
-235 215 -516z m3105 478 c58 -20 106 -38 107 -39 1 -1 -5 -25 -14 -54 -14
-42 -37 -73 -128 -169 -62 -64 -112 -110 -112 -102 -1 44 -15 246 -19 263 -6
30 35 148 50 143 6 -2 58 -21 116 -42z"/>
<path d="M2523 2080 c-29 -3 -60 -13 -69 -22 -21 -20 -26 -68 -11 -89 28 -37
48 -39 430 -39 358 0 375 1 399 20 14 11 28 28 30 38 8 30 -18 81 -44 87 -30
8 -667 12 -735 5z"/>
<path d="M3834 1553 c-70 -74 -93 -93 -100 -82 -20 31 -86 79 -110 79 -14 0
-36 -11 -49 -24 -38 -38 -27 -77 47 -155 34 -36 71 -73 82 -83 34 -27 76 -14
126 40 194 209 200 216 200 248 0 23 -8 39 -26 53 -50 39 -70 30 -170 -76z"/>
<path d="M2476 1415 c-12 -6 -27 -23 -34 -39 -18 -36 -1 -80 36 -94 16 -6 174
-10 401 -10 369 1 374 1 399 23 31 27 33 79 3 108 -19 20 -33 21 -402 21 -244
1 -390 -3 -403 -9z"/>
<path d="M2458 739 c-34 -34 -35 -59 -4 -96 l24 -28 391 0 c388 0 391 0 412
22 28 28 28 79 -1 107 -20 21 -29 21 -408 21 l-387 1 -27 -27z"/>
</g>
</svg>
